<mxfile host="app.diagrams.net" modified="2024-04-07T01:32:26.435Z" agent="Mozilla/5.0 (Windows NT 10.0; Win64; x64) AppleWebKit/537.36 (KHTML, like Gecko) Chrome/123.0.0.0 Safari/537.36" etag="jRtHoIzX8XYS_jT8clvU" version="24.2.1" type="github">
  <diagram name="第 1 页" id="vf9Cl5K1W_hky4A5xF3j">
    <mxGraphModel dx="439" dy="730" grid="1" gridSize="10" guides="1" tooltips="1" connect="1" arrows="1" fold="1" page="1" pageScale="1" pageWidth="827" pageHeight="1169" math="0" shadow="0">
      <root>
        <mxCell id="0" />
        <mxCell id="1" parent="0" />
      </root>
    </mxGraphModel>
  </diagram>
</mxfile>
